<svg width="24" height="24" viewBox="0 0 24 24" fill="none" xmlns="http://www.w3.org/2000/svg">
<circle cx="12" cy="12" r="11.25" stroke="white" stroke-width="1.5"/>
<path d="M11.8811 4C12.434 4 12.8807 4.4467 12.8807 4.99961V6.1148C12.9307 6.12105 12.9775 6.12729 13.0275 6.13667C13.04 6.13979 13.0494 6.13979 13.0619 6.14291L14.5613 6.41781C15.1048 6.51777 15.4641 7.03944 15.3641 7.57985C15.2641 8.12027 14.7425 8.48262 14.202 8.38266L12.7183 8.11089C11.7405 7.9672 10.8783 8.06404 10.2723 8.30457C9.66632 8.5451 9.42267 8.87622 9.36644 9.18235C9.30396 9.51659 9.35082 9.70402 9.40392 9.8196C9.46015 9.94143 9.57573 10.0789 9.80377 10.2319C10.3129 10.5662 11.0939 10.7848 12.106 11.0535L12.1966 11.0785C13.09 11.3159 14.1833 11.6033 14.9955 12.1343C15.4391 12.4248 15.8577 12.8184 16.1169 13.3682C16.3824 13.9274 16.4387 14.5521 16.3168 15.2175C16.1013 16.4045 15.2829 17.198 14.2676 17.6134C13.8397 17.7884 13.3742 17.9008 12.8807 17.957V19.0004C12.8807 19.5533 12.434 20 11.8811 20C11.3282 20 10.8815 19.5533 10.8815 19.0004V17.9102C10.869 17.9071 10.8534 17.9071 10.8409 17.9039H10.8346C10.0724 17.7852 8.81978 17.4572 7.97636 17.0824C7.47343 16.8575 7.24539 16.2671 7.4703 15.7642C7.69522 15.2612 8.28561 15.0332 8.78854 15.2581C9.44141 15.5486 10.516 15.836 11.1376 15.9328C12.1341 16.0797 12.9557 15.9953 13.5117 15.7673C14.0396 15.5517 14.2801 15.2394 14.3489 14.8645C14.4082 14.5334 14.3614 14.3428 14.3083 14.2273C14.2489 14.1023 14.1333 13.9649 13.9022 13.8118C13.3899 13.4775 12.6058 13.2589 11.5906 12.9902L11.5031 12.9684C10.6128 12.7247 9.5195 12.4342 8.70732 11.9032C8.26374 11.6127 7.84828 11.2159 7.58901 10.6661C7.32661 10.107 7.27351 9.48223 7.39846 8.81687C7.62337 7.62358 8.51677 6.84889 9.532 6.44592C9.94746 6.28036 10.4035 6.1679 10.8815 6.1023V4.99961C10.8815 4.4467 11.3282 4 11.8811 4Z" fill="white"/>
</svg>
